<svg width="200" height="40" viewBox="0 0 200 40" fill="none" xmlns="http://www.w3.org/2000/svg">
  <path d="M10 5H35C37.7614 5 40 7.23858 40 10V30C40 32.7614 37.7614 35 35 35H10C7.23858 35 5 32.7614 5 30V10C5 7.23858 7.23858 5 10 5Z" fill="#4A6CF7"/>
  <path d="M15 15V25H17.5V22.5H20V25H22.5V15H20V20H17.5V15H15Z" fill="white"/>
  <path d="M25 15V25H27.5V20H30V25H32.5V15H30V17.5H27.5V15H25Z" fill="white"/>
  <text x="50" y="25" font-family="Arial, sans-serif" font-size="16" font-weight="bold" fill="#333">СММ Календарь</text>
</svg> 